<svg xmlns="http://www.w3.org/2000/svg" xmlns:xlink="http://www.w3.org/1999/xlink" width="2000" zoomAndPan="magnify" viewBox="0 0 1500 1499.999933" height="2000" preserveAspectRatio="xMidYMid meet" version="1.0"><defs><g/><clipPath id="2a69be4edf"><path d="M 230.070312 120.179688 L 1269.570312 120.179688 L 1269.570312 1159.679688 L 230.070312 1159.679688 Z M 230.070312 120.179688 " clip-rule="nonzero"/></clipPath><clipPath id="8dbef1097c"><path d="M 1199.90625 899.777344 C 1056.449219 1148.101562 738.339844 1233.476562 490.015625 1090.015625 C 241.296875 946.558594 156.3125 628.449219 299.773438 380.125 C 443.234375 131.410156 760.949219 46.425781 1009.667969 189.882812 C 1257.992188 333.34375 1343.367188 651.0625 1199.90625 899.777344 Z M 1199.90625 899.777344 " clip-rule="evenodd"/></clipPath><linearGradient x1="2243.940147" gradientTransform="matrix(0.389837, 0, 0, 0.389837, 229.993253, 120.103245)" y1="-243.881287" x2="422.681399" gradientUnits="userSpaceOnUse" y2="2910.620628" id="d73dcf0f2a"><stop stop-opacity="1" stop-color="rgb(32.548523%, 73.329163%, 85.099792%)" offset="0"/><stop stop-opacity="1" stop-color="rgb(32.548523%, 73.329163%, 85.099792%)" offset="0.125"/><stop stop-opacity="1" stop-color="rgb(32.513428%, 73.223877%, 85.099792%)" offset="0.15625"/><stop stop-opacity="1" stop-color="rgb(32.437134%, 72.996521%, 85.099792%)" offset="0.1875"/><stop stop-opacity="1" stop-color="rgb(32.35321%, 72.747803%, 85.099792%)" offset="0.21875"/><stop stop-opacity="1" stop-color="rgb(32.270813%, 72.50061%, 85.099792%)" offset="0.25"/><stop stop-opacity="1" stop-color="rgb(32.18689%, 72.251892%, 85.099792%)" offset="0.28125"/><stop stop-opacity="1" stop-color="rgb(32.102966%, 72.003174%, 85.099792%)" offset="0.3125"/><stop stop-opacity="1" stop-color="rgb(32.020569%, 71.755981%, 85.099792%)" offset="0.34375"/><stop stop-opacity="1" stop-color="rgb(31.936646%, 71.507263%, 85.099792%)" offset="0.366026"/><stop stop-opacity="1" stop-color="rgb(31.895447%, 71.383667%, 85.099792%)" offset="0.375"/><stop stop-opacity="1" stop-color="rgb(31.852722%, 71.260071%, 85.099792%)" offset="0.40625"/><stop stop-opacity="1" stop-color="rgb(31.790161%, 71.073914%, 85.099792%)" offset="0.421875"/><stop stop-opacity="1" stop-color="rgb(31.710815%, 70.863342%, 85.116577%)" offset="0.429688"/><stop stop-opacity="1" stop-color="rgb(31.536865%, 70.440674%, 85.173035%)" offset="0.433594"/><stop stop-opacity="1" stop-color="rgb(31.42395%, 70.166016%, 85.211182%)" offset="0.4375"/><stop stop-opacity="1" stop-color="rgb(31.309509%, 69.889832%, 85.249329%)" offset="0.441406"/><stop stop-opacity="1" stop-color="rgb(31.196594%, 69.613647%, 85.287476%)" offset="0.445312"/><stop stop-opacity="1" stop-color="rgb(31.082153%, 69.337463%, 85.324097%)" offset="0.449219"/><stop stop-opacity="1" stop-color="rgb(30.967712%, 69.061279%, 85.362244%)" offset="0.453125"/><stop stop-opacity="1" stop-color="rgb(30.853271%, 68.785095%, 85.400391%)" offset="0.457031"/><stop stop-opacity="1" stop-color="rgb(30.740356%, 68.510437%, 85.438538%)" offset="0.460937"/><stop stop-opacity="1" stop-color="rgb(30.625916%, 68.234253%, 85.476685%)" offset="0.464844"/><stop stop-opacity="1" stop-color="rgb(30.513%, 67.958069%, 85.514832%)" offset="0.46875"/><stop stop-opacity="1" stop-color="rgb(30.39856%, 67.681885%, 85.551453%)" offset="0.472656"/><stop stop-opacity="1" stop-color="rgb(30.285645%, 67.405701%, 85.5896%)" offset="0.476562"/><stop stop-opacity="1" stop-color="rgb(30.171204%, 67.129517%, 85.627747%)" offset="0.480469"/><stop stop-opacity="1" stop-color="rgb(30.058289%, 66.853333%, 85.665894%)" offset="0.484375"/><stop stop-opacity="1" stop-color="rgb(29.943848%, 66.577148%, 85.704041%)" offset="0.488281"/><stop stop-opacity="1" stop-color="rgb(29.829407%, 66.30249%, 85.742188%)" offset="0.492188"/><stop stop-opacity="1" stop-color="rgb(29.714966%, 66.026306%, 85.778809%)" offset="0.496094"/><stop stop-opacity="1" stop-color="rgb(29.602051%, 65.750122%, 85.816956%)" offset="0.5"/><stop stop-opacity="1" stop-color="rgb(29.48761%, 65.473938%, 85.855103%)" offset="0.503906"/><stop stop-opacity="1" stop-color="rgb(29.374695%, 65.197754%, 85.89325%)" offset="0.507812"/><stop stop-opacity="1" stop-color="rgb(29.260254%, 64.92157%, 85.931396%)" offset="0.511719"/><stop stop-opacity="1" stop-color="rgb(29.147339%, 64.646912%, 85.969543%)" offset="0.515625"/><stop stop-opacity="1" stop-color="rgb(29.032898%, 64.370728%, 86.00769%)" offset="0.519531"/><stop stop-opacity="1" stop-color="rgb(28.918457%, 64.094543%, 86.045837%)" offset="0.523437"/><stop stop-opacity="1" stop-color="rgb(28.804016%, 63.818359%, 86.082458%)" offset="0.527344"/><stop stop-opacity="1" stop-color="rgb(28.691101%, 63.542175%, 86.120605%)" offset="0.53125"/><stop stop-opacity="1" stop-color="rgb(28.57666%, 63.265991%, 86.158752%)" offset="0.535156"/><stop stop-opacity="1" stop-color="rgb(28.463745%, 62.989807%, 86.196899%)" offset="0.539062"/><stop stop-opacity="1" stop-color="rgb(28.349304%, 62.713623%, 86.235046%)" offset="0.542969"/><stop stop-opacity="1" stop-color="rgb(28.236389%, 62.438965%, 86.273193%)" offset="0.546875"/><stop stop-opacity="1" stop-color="rgb(28.121948%, 62.162781%, 86.309814%)" offset="0.550781"/><stop stop-opacity="1" stop-color="rgb(28.009033%, 61.886597%, 86.347961%)" offset="0.554688"/><stop stop-opacity="1" stop-color="rgb(27.894592%, 61.610413%, 86.386108%)" offset="0.558594"/><stop stop-opacity="1" stop-color="rgb(27.780151%, 61.334229%, 86.424255%)" offset="0.5625"/><stop stop-opacity="1" stop-color="rgb(27.66571%, 61.058044%, 86.462402%)" offset="0.566406"/><stop stop-opacity="1" stop-color="rgb(27.552795%, 60.78186%, 86.500549%)" offset="0.570312"/><stop stop-opacity="1" stop-color="rgb(27.438354%, 60.505676%, 86.53717%)" offset="0.574219"/><stop stop-opacity="1" stop-color="rgb(27.325439%, 60.231018%, 86.575317%)" offset="0.578125"/><stop stop-opacity="1" stop-color="rgb(27.210999%, 59.954834%, 86.613464%)" offset="0.582031"/><stop stop-opacity="1" stop-color="rgb(27.098083%, 59.67865%, 86.651611%)" offset="0.585938"/><stop stop-opacity="1" stop-color="rgb(26.983643%, 59.402466%, 86.689758%)" offset="0.589844"/><stop stop-opacity="1" stop-color="rgb(26.870728%, 59.126282%, 86.727905%)" offset="0.59375"/><stop stop-opacity="1" stop-color="rgb(26.756287%, 58.850098%, 86.766052%)" offset="0.597656"/><stop stop-opacity="1" stop-color="rgb(26.641846%, 58.575439%, 86.804199%)" offset="0.601562"/><stop stop-opacity="1" stop-color="rgb(26.527405%, 58.299255%, 86.84082%)" offset="0.605469"/><stop stop-opacity="1" stop-color="rgb(26.41449%, 58.023071%, 86.878967%)" offset="0.609375"/><stop stop-opacity="1" stop-color="rgb(26.300049%, 57.746887%, 86.917114%)" offset="0.613281"/><stop stop-opacity="1" stop-color="rgb(26.187134%, 57.470703%, 86.955261%)" offset="0.617188"/><stop stop-opacity="1" stop-color="rgb(26.072693%, 57.194519%, 86.993408%)" offset="0.621094"/><stop stop-opacity="1" stop-color="rgb(25.959778%, 56.918335%, 87.031555%)" offset="0.625"/><stop stop-opacity="1" stop-color="rgb(25.845337%, 56.642151%, 87.068176%)" offset="0.628906"/><stop stop-opacity="1" stop-color="rgb(25.732422%, 56.367493%, 87.106323%)" offset="0.632812"/><stop stop-opacity="1" stop-color="rgb(25.617981%, 56.091309%, 87.14447%)" offset="0.636719"/><stop stop-opacity="1" stop-color="rgb(25.50354%, 55.815125%, 87.182617%)" offset="0.640625"/><stop stop-opacity="1" stop-color="rgb(25.389099%, 55.53894%, 87.220764%)" offset="0.644531"/><stop stop-opacity="1" stop-color="rgb(25.276184%, 55.262756%, 87.258911%)" offset="0.648438"/><stop stop-opacity="1" stop-color="rgb(25.161743%, 54.986572%, 87.295532%)" offset="0.652344"/><stop stop-opacity="1" stop-color="rgb(25.048828%, 54.711914%, 87.333679%)" offset="0.65625"/><stop stop-opacity="1" stop-color="rgb(24.934387%, 54.43573%, 87.371826%)" offset="0.660156"/><stop stop-opacity="1" stop-color="rgb(24.821472%, 54.159546%, 87.409973%)" offset="0.664062"/><stop stop-opacity="1" stop-color="rgb(24.707031%, 53.883362%, 87.44812%)" offset="0.667969"/><stop stop-opacity="1" stop-color="rgb(24.594116%, 53.607178%, 87.486267%)" offset="0.671875"/><stop stop-opacity="1" stop-color="rgb(24.479675%, 53.330994%, 87.524414%)" offset="0.675781"/><stop stop-opacity="1" stop-color="rgb(24.365234%, 53.05481%, 87.562561%)" offset="0.679688"/><stop stop-opacity="1" stop-color="rgb(24.250793%, 52.778625%, 87.599182%)" offset="0.683594"/><stop stop-opacity="1" stop-color="rgb(24.137878%, 52.503967%, 87.637329%)" offset="0.6875"/><stop stop-opacity="1" stop-color="rgb(24.023438%, 52.227783%, 87.675476%)" offset="0.691406"/><stop stop-opacity="1" stop-color="rgb(23.910522%, 51.951599%, 87.713623%)" offset="0.695312"/><stop stop-opacity="1" stop-color="rgb(23.796082%, 51.675415%, 87.75177%)" offset="0.699219"/><stop stop-opacity="1" stop-color="rgb(23.683167%, 51.399231%, 87.789917%)" offset="0.703125"/><stop stop-opacity="1" stop-color="rgb(23.568726%, 51.123047%, 87.826538%)" offset="0.707031"/><stop stop-opacity="1" stop-color="rgb(23.454285%, 50.846863%, 87.864685%)" offset="0.710937"/><stop stop-opacity="1" stop-color="rgb(23.339844%, 50.570679%, 87.902832%)" offset="0.714844"/><stop stop-opacity="1" stop-color="rgb(23.226929%, 50.296021%, 87.940979%)" offset="0.71875"/><stop stop-opacity="1" stop-color="rgb(23.112488%, 50.019836%, 87.979126%)" offset="0.722656"/><stop stop-opacity="1" stop-color="rgb(22.999573%, 49.743652%, 88.017273%)" offset="0.726562"/><stop stop-opacity="1" stop-color="rgb(22.885132%, 49.467468%, 88.053894%)" offset="0.730469"/><stop stop-opacity="1" stop-color="rgb(22.772217%, 49.191284%, 88.092041%)" offset="0.734375"/><stop stop-opacity="1" stop-color="rgb(22.657776%, 48.9151%, 88.130188%)" offset="0.738281"/><stop stop-opacity="1" stop-color="rgb(22.544861%, 48.640442%, 88.168335%)" offset="0.742187"/><stop stop-opacity="1" stop-color="rgb(22.43042%, 48.364258%, 88.206482%)" offset="0.746094"/><stop stop-opacity="1" stop-color="rgb(22.315979%, 48.088074%, 88.244629%)" offset="0.75"/><stop stop-opacity="1" stop-color="rgb(22.201538%, 47.81189%, 88.282776%)" offset="0.753906"/><stop stop-opacity="1" stop-color="rgb(22.088623%, 47.535706%, 88.320923%)" offset="0.757812"/><stop stop-opacity="1" stop-color="rgb(21.974182%, 47.259521%, 88.357544%)" offset="0.761719"/><stop stop-opacity="1" stop-color="rgb(21.861267%, 46.983337%, 88.395691%)" offset="0.765625"/><stop stop-opacity="1" stop-color="rgb(21.746826%, 46.707153%, 88.433838%)" offset="0.769531"/><stop stop-opacity="1" stop-color="rgb(21.633911%, 46.432495%, 88.471985%)" offset="0.773437"/><stop stop-opacity="1" stop-color="rgb(21.51947%, 46.156311%, 88.510132%)" offset="0.777344"/><stop stop-opacity="1" stop-color="rgb(21.406555%, 45.880127%, 88.548279%)" offset="0.78125"/><stop stop-opacity="1" stop-color="rgb(21.292114%, 45.603943%, 88.5849%)" offset="0.785156"/><stop stop-opacity="1" stop-color="rgb(21.177673%, 45.327759%, 88.623047%)" offset="0.789062"/><stop stop-opacity="1" stop-color="rgb(21.063232%, 45.051575%, 88.661194%)" offset="0.792969"/><stop stop-opacity="1" stop-color="rgb(20.950317%, 44.776917%, 88.699341%)" offset="0.796875"/><stop stop-opacity="1" stop-color="rgb(20.835876%, 44.500732%, 88.737488%)" offset="0.800781"/><stop stop-opacity="1" stop-color="rgb(20.722961%, 44.224548%, 88.775635%)" offset="0.804687"/><stop stop-opacity="1" stop-color="rgb(20.608521%, 43.948364%, 88.812256%)" offset="0.808594"/><stop stop-opacity="1" stop-color="rgb(20.495605%, 43.67218%, 88.850403%)" offset="0.8125"/><stop stop-opacity="1" stop-color="rgb(20.381165%, 43.395996%, 88.88855%)" offset="0.816406"/><stop stop-opacity="1" stop-color="rgb(20.26825%, 43.119812%, 88.926697%)" offset="0.820312"/><stop stop-opacity="1" stop-color="rgb(20.153809%, 42.843628%, 88.964844%)" offset="0.824219"/><stop stop-opacity="1" stop-color="rgb(20.039368%, 42.56897%, 89.002991%)" offset="0.828125"/><stop stop-opacity="1" stop-color="rgb(19.924927%, 42.292786%, 89.039612%)" offset="0.832031"/><stop stop-opacity="1" stop-color="rgb(19.812012%, 42.016602%, 89.077759%)" offset="0.835937"/><stop stop-opacity="1" stop-color="rgb(19.697571%, 41.740417%, 89.115906%)" offset="0.839844"/><stop stop-opacity="1" stop-color="rgb(19.584656%, 41.464233%, 89.154053%)" offset="0.84375"/><stop stop-opacity="1" stop-color="rgb(19.470215%, 41.188049%, 89.1922%)" offset="0.847656"/><stop stop-opacity="1" stop-color="rgb(19.3573%, 40.911865%, 89.230347%)" offset="0.851562"/><stop stop-opacity="1" stop-color="rgb(19.242859%, 40.635681%, 89.268494%)" offset="0.855469"/><stop stop-opacity="1" stop-color="rgb(19.129944%, 40.361023%, 89.306641%)" offset="0.859375"/><stop stop-opacity="1" stop-color="rgb(19.015503%, 40.084839%, 89.343262%)" offset="0.863281"/><stop stop-opacity="1" stop-color="rgb(18.901062%, 39.808655%, 89.381409%)" offset="0.867187"/><stop stop-opacity="1" stop-color="rgb(18.859863%, 39.707947%, 89.395142%)" offset="0.875"/><stop stop-opacity="1" stop-color="rgb(18.818665%, 39.608765%, 89.408875%)" offset="1"/></linearGradient></defs><g clip-path="url(#2a69be4edf)"><g clip-path="url(#8dbef1097c)"><path fill="url(#d73dcf0f2a)" d="M 230.070312 120.179688 L 230.070312 1159.679688 L 1269.570312 1159.679688 L 1269.570312 120.179688 Z M 230.070312 120.179688 " fill-rule="nonzero"/></g></g><path fill="#ffffff" d="M 797.59375 524.753906 C 807.730469 515.007812 820.984375 509.550781 835.019531 509.550781 C 849.445312 509.550781 862.699219 515.007812 872.835938 524.753906 C 893.105469 545.414062 893.105469 578.941406 872.835938 599.601562 C 862.699219 609.738281 849.445312 615.195312 835.019531 615.195312 C 820.984375 615.195312 807.730469 609.738281 797.59375 599.601562 C 777.324219 578.941406 777.324219 545.414062 797.59375 524.753906 Z M 489.234375 972.285156 C 486.894531 972.285156 484.945312 971.507812 483.386719 969.949219 C 480.269531 966.828125 480.269531 961.371094 483.386719 958.253906 L 691.949219 750.078125 C 695.070312 746.960938 700.136719 746.960938 703.253906 750.078125 C 706.375 753.199219 706.375 758.265625 703.253906 761.386719 L 494.691406 969.949219 C 493.132812 971.507812 491.183594 972.285156 489.234375 972.285156 Z M 486.117188 871.320312 C 483.777344 871.320312 481.828125 870.539062 480.269531 868.980469 C 477.148438 865.859375 477.148438 860.792969 480.269531 857.285156 L 635.8125 701.738281 C 638.933594 698.621094 644 698.621094 647.117188 701.738281 C 650.628906 704.859375 650.628906 710.316406 647.117188 713.433594 L 491.574219 868.980469 C 490.015625 870.539062 488.066406 871.320312 486.117188 871.320312 Z M 417.503906 831.164062 C 415.164062 831.164062 413.214844 830.386719 411.65625 828.828125 C 408.539062 825.316406 408.539062 820.25 411.65625 817.132812 L 595.660156 633.128906 C 598.777344 630.011719 603.847656 630.011719 606.964844 633.128906 C 610.085938 636.246094 610.085938 641.703125 606.964844 644.824219 L 422.960938 828.828125 C 421.402344 830.386719 419.453125 831.164062 417.503906 831.164062 Z M 605.796875 957.082031 C 603.847656 957.082031 601.898438 956.304688 600.339844 954.742188 C 597.21875 951.234375 597.21875 946.167969 600.339844 943.046875 L 765.238281 778.148438 C 768.359375 775.027344 773.425781 775.027344 776.542969 778.148438 C 779.664062 781.265625 779.664062 786.722656 776.542969 789.84375 L 611.644531 954.742188 C 610.085938 956.304688 608.136719 957.082031 605.796875 957.082031 Z M 949.242188 753.976562 L 889.207031 693.941406 L 884.917969 695.503906 C 864.257812 701.738281 847.882812 707.976562 831.511719 715.382812 L 895.445312 779.316406 C 904.019531 787.894531 916.105469 787.113281 925.460938 778.148438 Z M 999.140625 634.6875 C 977.699219 653.398438 951.582031 669.773438 919.613281 683.027344 L 918.054688 683.417969 C 916.105469 684.585938 913.765625 685.367188 911.816406 686.144531 L 911.039062 686.144531 L 911.039062 686.535156 L 910.257812 686.535156 L 909.867188 686.925781 L 909.089844 686.925781 L 909.089844 687.316406 L 907.917969 687.707031 L 906.359375 688.09375 L 960.15625 742.28125 C 981.597656 715.382812 996.023438 675.230469 999.140625 634.6875 Z M 815.917969 704.859375 L 692.730469 581.671875 L 691.558594 583.621094 L 691.558594 584.007812 C 685.324219 595.703125 678.695312 607.398438 670.898438 621.824219 L 668.949219 624.941406 L 772.644531 728.636719 L 775.765625 726.6875 C 790.1875 718.503906 801.882812 711.875 813.578125 706.027344 L 813.96875 706.027344 Z M 861.140625 536.449219 C 854.121094 529.433594 845.15625 525.535156 835.019531 525.535156 C 825.273438 525.535156 816.308594 529.433594 809.289062 536.449219 C 794.867188 550.484375 794.867188 573.875 809.289062 588.296875 C 816.308594 595.3125 825.273438 599.210938 835.019531 599.210938 C 845.15625 599.210938 854.121094 595.3125 861.140625 588.296875 C 875.5625 573.875 875.5625 550.871094 861.140625 536.449219 Z M 978.480469 419.109375 C 969.125 410.140625 957.039062 405.074219 943.785156 405.074219 C 930.917969 405.074219 918.835938 410.140625 909.480469 419.109375 C 890.375 438.210938 890.375 469.007812 909.480469 488.109375 C 918.835938 497.074219 930.917969 502.144531 943.785156 502.144531 C 957.039062 502.144531 969.125 497.074219 978.480469 488.109375 C 987.445312 478.753906 992.515625 466.667969 992.515625 453.804688 C 992.515625 440.550781 987.445312 428.464844 978.480469 419.109375 Z M 992.125 323.207031 L 1074.769531 405.464844 C 1073.988281 369.210938 1068.921875 341.53125 1066.582031 331.785156 C 1057.226562 329.445312 1028.769531 323.988281 992.125 323.207031 Z M 703.644531 508.378906 L 643.609375 448.347656 L 619.441406 472.125 C 615.152344 476.804688 612.421875 482.261719 612.035156 487.71875 C 612.035156 492.789062 613.984375 497.855469 618.269531 502.144531 L 682.203125 566.078125 L 682.984375 564.515625 L 682.984375 563.738281 L 683.375 563.347656 L 683.375 562.957031 L 683.761719 562.957031 L 683.761719 562.179688 L 684.542969 560.617188 L 686.492188 555.941406 L 686.882812 555.550781 L 686.882812 555.160156 L 687.660156 553.210938 L 688.050781 552.820312 L 688.050781 552.042969 L 688.441406 551.652344 L 688.441406 551.261719 L 688.832031 551.261719 L 688.832031 550.484375 L 689.222656 550.09375 L 689.222656 549.703125 L 689.609375 548.921875 L 689.609375 548.535156 L 690 548.144531 L 690 547.363281 L 690.390625 546.972656 L 690.390625 546.585938 L 690.78125 546.195312 L 690.78125 545.804688 L 691.171875 545.027344 L 691.171875 544.636719 L 691.949219 542.6875 L 691.949219 542.296875 L 692.339844 541.90625 C 693.898438 537.617188 695.457031 533.332031 697.019531 528.652344 L 697.40625 527.871094 L 697.40625 527.09375 L 697.796875 526.3125 L 697.796875 525.921875 L 698.1875 525.144531 L 698.96875 522.804688 L 698.96875 522.414062 C 700.136719 519.296875 701.304688 515.789062 702.085938 512.277344 L 702.476562 511.5 Z M 712.222656 483.820312 C 725.867188 449.125 743.019531 421.058594 762.898438 398.445312 C 721.96875 401.175781 682.203125 415.988281 655.304688 437.429688 L 709.492188 491.226562 L 710.273438 488.890625 L 711.050781 487.328125 Z M 856.460938 687.707031 Z M 880.242188 679.910156 Z M 903.242188 672.113281 Z M 699.746094 566.078125 L 831.511719 697.839844 C 835.800781 695.503906 840.476562 693.941406 845.15625 691.992188 L 845.546875 691.992188 L 846.324219 691.605469 L 846.714844 691.214844 L 847.105469 691.214844 L 847.496094 690.824219 L 848.273438 690.824219 L 849.054688 690.433594 L 849.445312 690.433594 L 849.832031 690.042969 L 850.613281 690.042969 L 851.394531 689.65625 L 852.171875 689.265625 L 852.953125 688.875 L 853.34375 688.875 L 854.121094 688.484375 L 854.511719 688.484375 L 854.902344 688.09375 L 855.679688 688.09375 L 856.460938 687.707031 L 858.800781 686.925781 L 864.257812 684.976562 L 868.546875 683.808594 L 868.546875 683.417969 L 869.324219 683.417969 L 870.886719 683.027344 L 870.886719 682.636719 L 872.054688 682.636719 L 872.445312 682.246094 L 873.222656 682.246094 L 873.613281 681.859375 L 875.171875 681.46875 L 875.5625 681.46875 L 875.953125 681.078125 L 876.734375 681.078125 L 877.902344 680.6875 L 878.683594 680.296875 L 879.460938 680.296875 L 880.242188 679.910156 L 880.632812 679.910156 L 881.019531 679.519531 C 883.359375 678.738281 886.089844 677.960938 888.425781 677.179688 C 888.816406 677.179688 888.816406 677.179688 889.207031 677.179688 L 889.988281 676.789062 L 892.324219 676.011719 L 898.171875 674.0625 L 898.953125 673.671875 L 899.34375 673.671875 L 899.734375 673.28125 L 900.902344 672.890625 L 902.460938 672.503906 L 902.460938 672.113281 L 903.632812 672.113281 L 903.632812 671.722656 L 904.410156 671.722656 L 904.800781 671.332031 L 905.582031 671.332031 L 905.582031 670.941406 L 906.75 670.941406 L 906.75 670.554688 L 907.53125 670.554688 L 907.917969 670.164062 L 908.699219 670.164062 L 908.699219 669.773438 L 909.480469 669.773438 L 909.480469 669.382812 L 910.648438 669.382812 L 910.648438 668.992188 L 911.429688 668.992188 L 911.429688 668.605469 L 911.816406 668.605469 L 912.597656 668.214844 C 914.546875 667.433594 916.105469 667.042969 918.054688 666.265625 L 918.445312 665.875 C 920.394531 665.09375 921.953125 664.316406 923.902344 663.535156 C 1041.632812 608.957031 1070.871094 505.652344 1074.378906 428.074219 L 969.902344 323.597656 C 911.429688 325.9375 842.816406 342.308594 789.019531 394.546875 C 788.628906 394.9375 788.238281 395.328125 788.238281 395.328125 C 763.679688 419.496094 743.796875 449.90625 728.984375 485.378906 L 727.816406 488.5 L 726.644531 491.226562 L 725.085938 495.515625 L 724.304688 497.074219 C 723.527344 499.023438 723.136719 500.972656 722.355469 502.921875 L 722.355469 503.3125 L 720.796875 507.992188 C 720.40625 508.378906 720.40625 509.160156 720.019531 509.550781 C 719.238281 511.890625 718.457031 514.617188 717.679688 516.957031 C 711.832031 536.058594 706.375 551.652344 699.746094 566.078125 Z M 898.171875 499.414062 C 872.835938 474.074219 872.835938 433.140625 898.171875 407.804688 C 910.257812 395.328125 926.632812 388.699219 943.785156 388.699219 C 961.328125 388.699219 977.699219 395.328125 989.785156 407.804688 C 1001.871094 419.886719 1008.886719 436.261719 1008.886719 453.804688 C 1008.886719 470.957031 1001.871094 487.328125 989.785156 499.414062 C 977.699219 511.890625 961.328125 518.515625 943.785156 518.515625 C 926.632812 518.515625 910.257812 511.890625 898.171875 499.414062 Z M 898.171875 499.414062 " fill-opacity="1" fill-rule="evenodd"/><g fill="#1e89e6" fill-opacity="1"><g transform="translate(242.441351, 1332.178689)"><g><path d="M 50.484375 -27.171875 C 46.078125 -27.171875 41.976562 -27.660156 38.1875 -28.640625 L 31.390625 -21.84375 C 33.472656 -20.75 36.289062 -19.832031 39.84375 -19.09375 C 43.394531 -18.363281 49.144531 -17.628906 57.09375 -16.890625 C 69.21875 -15.785156 78.03125 -12.90625 83.53125 -8.25 C 89.039062 -3.601562 91.796875 2.816406 91.796875 11.015625 C 91.796875 16.398438 90.328125 21.507812 87.390625 26.34375 C 84.453125 31.175781 79.921875 35.09375 73.796875 38.09375 C 67.679688 41.09375 59.851562 42.59375 50.3125 42.59375 C 37.332031 42.59375 26.863281 40.175781 18.90625 35.34375 C 10.957031 30.507812 6.984375 23.257812 6.984375 13.59375 C 6.984375 5.382812 10.957031 -1.71875 18.90625 -7.71875 C 16.457031 -8.8125 14.347656 -9.96875 12.578125 -11.1875 C 10.804688 -12.414062 9.242188 -13.707031 7.890625 -15.0625 L 7.890625 -19.28125 L 23.875 -36.171875 C 16.769531 -42.410156 13.21875 -50.425781 13.21875 -60.21875 C 13.21875 -66.34375 14.71875 -71.910156 17.71875 -76.921875 C 20.71875 -81.941406 24.96875 -85.921875 30.46875 -88.859375 C 35.976562 -91.796875 42.648438 -93.265625 50.484375 -93.265625 C 55.628906 -93.265625 60.40625 -92.53125 64.8125 -91.0625 L 99.328125 -91.0625 L 99.328125 -76.75 L 83.71875 -75.640625 C 86.164062 -70.992188 87.390625 -65.851562 87.390625 -60.21875 C 87.390625 -54.101562 85.921875 -48.535156 82.984375 -43.515625 C 80.046875 -38.492188 75.789062 -34.515625 70.21875 -31.578125 C 64.65625 -28.640625 58.078125 -27.171875 50.484375 -27.171875 Z M 50.484375 -45.171875 C 55.265625 -45.171875 59.210938 -46.453125 62.328125 -49.015625 C 65.453125 -51.585938 67.015625 -55.257812 67.015625 -60.03125 C 67.015625 -64.8125 65.453125 -68.484375 62.328125 -71.046875 C 59.210938 -73.617188 55.265625 -74.90625 50.484375 -74.90625 C 45.472656 -74.90625 41.4375 -73.617188 38.375 -71.046875 C 35.3125 -68.484375 33.78125 -64.8125 33.78125 -60.03125 C 33.78125 -55.257812 35.3125 -51.585938 38.375 -49.015625 C 41.4375 -46.453125 45.472656 -45.171875 50.484375 -45.171875 Z M 28.453125 11.203125 C 28.453125 15.734375 30.5625 19.128906 34.78125 21.390625 C 39.007812 23.648438 44.1875 24.78125 50.3125 24.78125 C 56.1875 24.78125 60.957031 23.585938 64.625 21.203125 C 68.300781 18.816406 70.140625 15.601562 70.140625 11.5625 C 70.140625 8.257812 68.941406 5.503906 66.546875 3.296875 C 64.160156 1.097656 59.421875 -0.242188 52.328125 -0.734375 C 47.304688 -1.097656 42.65625 -1.648438 38.375 -2.390625 C 34.820312 -0.429688 32.28125 1.707031 30.75 4.03125 C 29.21875 6.363281 28.453125 8.753906 28.453125 11.203125 Z M 28.453125 11.203125 "/></g></g></g><g fill="#1e89e6" fill-opacity="1"><g transform="translate(343.236451, 1332.178689)"><g><path d="M 24.609375 -105.203125 C 20.316406 -105.203125 16.796875 -106.484375 14.046875 -109.046875 C 11.296875 -111.617188 9.921875 -114.863281 9.921875 -118.78125 C 9.921875 -122.695312 11.296875 -125.910156 14.046875 -128.421875 C 16.796875 -130.929688 20.316406 -132.1875 24.609375 -132.1875 C 28.890625 -132.1875 32.40625 -130.929688 35.15625 -128.421875 C 37.914062 -125.910156 39.296875 -122.695312 39.296875 -118.78125 C 39.296875 -114.863281 37.914062 -111.617188 35.15625 -109.046875 C 32.40625 -106.484375 28.890625 -105.203125 24.609375 -105.203125 Z M 12.859375 0 L 12.859375 -91.0625 L 36.359375 -91.0625 L 36.359375 0 Z M 12.859375 0 "/></g></g></g><g fill="#1e89e6" fill-opacity="1"><g transform="translate(388.585035, 1332.178689)"><g><path d="M 52.515625 0 C 42.960938 0 35.3125 -2.320312 29.5625 -6.96875 C 23.8125 -11.625 20.9375 -19.890625 20.9375 -31.765625 L 20.9375 -71.421875 L 5.328125 -71.421875 L 5.328125 -91.0625 L 20.9375 -91.0625 L 23.6875 -115.484375 L 44.4375 -115.484375 L 44.4375 -91.0625 L 69.03125 -91.0625 L 69.03125 -71.421875 L 44.4375 -71.421875 L 44.4375 -31.578125 C 44.4375 -27.171875 45.382812 -24.140625 47.28125 -22.484375 C 49.175781 -20.835938 52.445312 -20.015625 57.09375 -20.015625 L 68.484375 -20.015625 L 68.484375 0 Z M 52.515625 0 "/></g></g></g><g fill="#1e89e6" fill-opacity="1"><g transform="translate(462.207674, 1332.178689)"><g/></g></g><g fill="#6a868f" fill-opacity="1"><g transform="translate(502.234298, 1332.178689)"><g><path d="M 11.9375 0 L 11.9375 -132.1875 L 35.4375 -132.1875 L 35.4375 0 Z M 11.9375 0 "/></g></g></g><g fill="#6a868f" fill-opacity="1"><g transform="translate(546.114101, 1332.178689)"><g><path d="M 43.328125 2.203125 C 35.492188 2.203125 29.066406 0.945312 24.046875 -1.5625 C 19.035156 -4.070312 15.304688 -7.40625 12.859375 -11.5625 C 10.410156 -15.726562 9.1875 -20.320312 9.1875 -25.34375 C 9.1875 -33.78125 12.488281 -40.628906 19.09375 -45.890625 C 25.707031 -51.160156 35.625 -53.796875 48.84375 -53.796875 L 71.96875 -53.796875 L 71.96875 -56 C 71.96875 -62.238281 70.191406 -66.828125 66.640625 -69.765625 C 63.097656 -72.703125 58.691406 -74.171875 53.421875 -74.171875 C 48.648438 -74.171875 44.488281 -73.035156 40.9375 -70.765625 C 37.394531 -68.503906 35.191406 -65.171875 34.328125 -60.765625 L 11.390625 -60.765625 C 11.992188 -67.378906 14.222656 -73.132812 18.078125 -78.03125 C 21.941406 -82.925781 26.929688 -86.6875 33.046875 -89.3125 C 39.171875 -91.945312 46.023438 -93.265625 53.609375 -93.265625 C 66.585938 -93.265625 76.804688 -90.019531 84.265625 -83.53125 C 91.734375 -77.050781 95.46875 -67.875 95.46875 -56 L 95.46875 0 L 75.453125 0 L 73.25 -14.6875 C 70.5625 -9.789062 66.800781 -5.75 61.96875 -2.5625 C 57.132812 0.613281 50.921875 2.203125 43.328125 2.203125 Z M 48.65625 -16.15625 C 55.382812 -16.15625 60.613281 -18.359375 64.34375 -22.765625 C 68.082031 -27.171875 70.441406 -32.617188 71.421875 -39.109375 L 51.40625 -39.109375 C 45.164062 -39.109375 40.695312 -37.972656 38 -35.703125 C 35.3125 -33.441406 33.96875 -30.660156 33.96875 -27.359375 C 33.96875 -23.804688 35.3125 -21.050781 38 -19.09375 C 40.695312 -17.132812 44.25 -16.15625 48.65625 -16.15625 Z M 48.65625 -16.15625 "/></g></g></g><g fill="#6a868f" fill-opacity="1"><g transform="translate(648.377981, 1332.178689)"><g><path d="M 46.078125 2.203125 C 34.703125 2.203125 25.921875 -1.34375 19.734375 -8.4375 C 13.554688 -15.539062 10.46875 -25.945312 10.46875 -39.65625 L 10.46875 -91.0625 L 33.78125 -91.0625 L 33.78125 -41.859375 C 33.78125 -34.023438 35.367188 -28.023438 38.546875 -23.859375 C 41.734375 -19.703125 46.753906 -17.625 53.609375 -17.625 C 60.097656 -17.625 65.453125 -19.945312 69.671875 -24.59375 C 73.898438 -29.25 76.015625 -35.738281 76.015625 -44.0625 L 76.015625 -91.0625 L 99.515625 -91.0625 L 99.515625 0 L 78.765625 0 L 76.921875 -15.421875 C 74.109375 -10.035156 70.039062 -5.75 64.71875 -2.5625 C 59.394531 0.613281 53.179688 2.203125 46.078125 2.203125 Z M 46.078125 2.203125 "/></g></g></g><g fill="#6a868f" fill-opacity="1"><g transform="translate(756.333397, 1332.178689)"><g><path d="M 11.9375 0 L 11.9375 -91.0625 L 32.6875 -91.0625 L 34.515625 -75.640625 C 37.328125 -81.023438 41.394531 -85.304688 46.71875 -88.484375 C 52.050781 -91.671875 58.328125 -93.265625 65.546875 -93.265625 C 76.804688 -93.265625 85.554688 -89.710938 91.796875 -82.609375 C 98.035156 -75.515625 101.15625 -65.113281 101.15625 -51.40625 L 101.15625 0 L 77.65625 0 L 77.65625 -49.203125 C 77.65625 -57.035156 76.0625 -63.03125 72.875 -67.1875 C 69.695312 -71.351562 64.742188 -73.4375 58.015625 -73.4375 C 51.410156 -73.4375 45.992188 -71.109375 41.765625 -66.453125 C 37.546875 -61.804688 35.4375 -55.320312 35.4375 -47 L 35.4375 0 Z M 11.9375 0 "/></g></g></g><g fill="#6a868f" fill-opacity="1"><g transform="translate(864.288802, 1332.178689)"><g><path d="M 56.546875 2.203125 C 47.242188 2.203125 39.039062 0.179688 31.9375 -3.859375 C 24.84375 -7.898438 19.242188 -13.53125 15.140625 -20.75 C 11.046875 -27.96875 9 -36.226562 9 -45.53125 C 9 -54.832031 11.046875 -63.09375 15.140625 -70.3125 C 19.242188 -77.539062 24.84375 -83.171875 31.9375 -87.203125 C 39.039062 -91.242188 47.242188 -93.265625 56.546875 -93.265625 C 68.171875 -93.265625 77.960938 -90.234375 85.921875 -84.171875 C 93.878906 -78.117188 98.957031 -69.769531 101.15625 -59.125 L 76.375 -59.125 C 75.15625 -63.53125 72.738281 -66.984375 69.125 -69.484375 C 65.507812 -71.992188 61.253906 -73.25 56.359375 -73.25 C 49.878906 -73.25 44.375 -70.800781 39.84375 -65.90625 C 35.3125 -61.007812 33.046875 -54.21875 33.046875 -45.53125 C 33.046875 -36.84375 35.3125 -30.050781 39.84375 -25.15625 C 44.375 -20.257812 49.878906 -17.8125 56.359375 -17.8125 C 61.253906 -17.8125 65.507812 -19.035156 69.125 -21.484375 C 72.738281 -23.929688 75.15625 -27.421875 76.375 -31.953125 L 101.15625 -31.953125 C 98.957031 -21.671875 93.878906 -13.40625 85.921875 -7.15625 C 77.960938 -0.914062 68.171875 2.203125 56.546875 2.203125 Z M 56.546875 2.203125 "/></g></g></g><g fill="#6a868f" fill-opacity="1"><g transform="translate(970.775426, 1332.178689)"><g><path d="M 11.9375 0 L 11.9375 -132.1875 L 35.4375 -132.1875 L 35.4375 -77.109375 C 38.5 -82.128906 42.628906 -86.078125 47.828125 -88.953125 C 53.023438 -91.828125 58.992188 -93.265625 65.734375 -93.265625 C 76.992188 -93.265625 85.710938 -89.710938 91.890625 -82.609375 C 98.066406 -75.515625 101.15625 -65.113281 101.15625 -51.40625 L 101.15625 0 L 77.84375 0 L 77.84375 -49.203125 C 77.84375 -57.035156 76.28125 -63.03125 73.15625 -67.1875 C 70.039062 -71.351562 65.117188 -73.4375 58.390625 -73.4375 C 51.773438 -73.4375 46.296875 -71.109375 41.953125 -66.453125 C 37.609375 -61.804688 35.4375 -55.320312 35.4375 -47 L 35.4375 0 Z M 11.9375 0 "/></g></g></g><g fill="#6a868f" fill-opacity="1"><g transform="translate(1078.730831, 1332.178689)"><g><path d="M 56.1875 2.203125 C 47 2.203125 38.851562 0.242188 31.75 -3.671875 C 24.65625 -7.585938 19.085938 -13.09375 15.046875 -20.1875 C 11.015625 -27.289062 9 -35.492188 9 -44.796875 C 9 -54.222656 10.988281 -62.609375 14.96875 -69.953125 C 18.945312 -77.296875 24.453125 -83.015625 31.484375 -87.109375 C 38.523438 -91.210938 46.816406 -93.265625 56.359375 -93.265625 C 65.296875 -93.265625 73.191406 -91.304688 80.046875 -87.390625 C 86.898438 -83.472656 92.253906 -78.117188 96.109375 -71.328125 C 99.960938 -64.535156 101.890625 -56.976562 101.890625 -48.65625 C 101.890625 -47.3125 101.859375 -45.90625 101.796875 -44.4375 C 101.742188 -42.96875 101.65625 -41.4375 101.53125 -39.84375 L 32.3125 -39.84375 C 32.800781 -32.738281 35.28125 -27.164062 39.75 -23.125 C 44.21875 -19.09375 49.632812 -17.078125 56 -17.078125 C 60.769531 -17.078125 64.773438 -18.144531 68.015625 -20.28125 C 71.265625 -22.425781 73.6875 -25.210938 75.28125 -28.640625 L 99.140625 -28.640625 C 97.429688 -22.890625 94.585938 -17.65625 90.609375 -12.9375 C 86.628906 -8.226562 81.734375 -4.523438 75.921875 -1.828125 C 70.109375 0.859375 63.53125 2.203125 56.1875 2.203125 Z M 56.359375 -74.171875 C 50.609375 -74.171875 45.53125 -72.546875 41.125 -69.296875 C 36.71875 -66.054688 33.90625 -61.132812 32.6875 -54.53125 L 78.03125 -54.53125 C 77.664062 -60.53125 75.460938 -65.300781 71.421875 -68.84375 C 67.378906 -72.394531 62.359375 -74.171875 56.359375 -74.171875 Z M 56.359375 -74.171875 "/></g></g></g><g fill="#6a868f" fill-opacity="1"><g transform="translate(1184.850283, 1332.178689)"><g><path d="M 11.9375 0 L 11.9375 -91.0625 L 32.859375 -91.0625 L 35.0625 -73.984375 C 38.375 -79.859375 42.875 -84.539062 48.5625 -88.03125 C 54.25 -91.519531 60.953125 -93.265625 68.671875 -93.265625 L 68.671875 -68.484375 L 62.0625 -68.484375 C 56.914062 -68.484375 52.320312 -67.6875 48.28125 -66.09375 C 44.25 -64.5 41.097656 -61.742188 38.828125 -57.828125 C 36.566406 -53.910156 35.4375 -48.46875 35.4375 -41.5 L 35.4375 0 Z M 11.9375 0 "/></g></g></g></svg>